<!-- Generated by IcoMoon.io -->
<svg version="1.1" xmlns="http://www.w3.org/2000/svg" width="32" height="32" viewBox="0 0 32 32">
<title>bucket</title>
<path d="M29.45 2.112c-0.076-0.287-0.236-0.545-0.46-0.741s-0.5-0.321-0.794-0.36-0.594 0.011-0.86 0.142c-0.266 0.132-0.488 0.339-0.636 0.597l-6.2 10.741v-1.99c0-0.53-0.211-1.039-0.586-1.414s-0.884-0.586-1.414-0.586h-2.5v-1h2.5c0.133 0 0.26-0.053 0.354-0.146s0.146-0.221 0.146-0.354-0.053-0.26-0.146-0.354c-0.094-0.094-0.221-0.146-0.354-0.146v-1.5c0-0.133-0.053-0.26-0.146-0.354s-0.221-0.146-0.354-0.146h-2c-0.133 0-0.26 0.053-0.354 0.146s-0.146 0.221-0.146 0.354v1.5c-0.133 0-0.26 0.053-0.354 0.146s-0.146 0.221-0.146 0.354v1.571c-0.428 0.111-0.807 0.36-1.079 0.709s-0.419 0.778-0.421 1.22v3.028c-0.227 0.074-0.434 0.2-0.603 0.368-0.105 0.105-0.248 0.164-0.397 0.164s-0.291-0.059-0.396-0.164c-0.297-0.284-0.692-0.443-1.104-0.443s-0.806 0.158-1.103 0.443c-0.314 0.319-0.567 0.693-0.747 1.104h-0.695l-0.575-1.272c-0.102-0.226-0.116-0.482-0.040-0.718s0.237-0.435 0.452-0.559l1.979-1.142c0.215-0.125 0.468-0.165 0.711-0.113s0.457 0.193 0.601 0.395c0.077 0.108 0.194 0.18 0.325 0.202s0.265-0.010 0.373-0.088c0.108-0.077 0.18-0.194 0.202-0.325s-0.010-0.265-0.088-0.373c-0.201-0.279-0.47-0.501-0.783-0.645s-0.656-0.204-0.999-0.175l-1.6-2.772 2.165-1.25c0.057-0.033 0.107-0.076 0.147-0.129s0.069-0.112 0.086-0.175c0.017-0.063 0.021-0.13 0.013-0.195s-0.030-0.128-0.063-0.185l-1-1.732c-0.033-0.057-0.077-0.107-0.129-0.147s-0.112-0.069-0.175-0.086c-0.063-0.017-0.13-0.021-0.195-0.013s-0.128 0.030-0.185 0.063l-6.928 4c-0.057 0.033-0.107 0.077-0.147 0.129s-0.069 0.112-0.086 0.175c-0.017 0.064-0.021 0.13-0.013 0.195s0.030 0.128 0.063 0.185l1 1.732c0.066 0.115 0.175 0.199 0.304 0.233s0.265 0.016 0.379-0.050c0.171-0.099 0.359-0.163 0.555-0.188s0.394-0.013 0.584 0.038c0.19 0.051 0.369 0.139 0.525 0.259s0.287 0.27 0.386 0.441l0.85 1.472c-0.196 0.282-0.316 0.611-0.348 0.953s0.026 0.687 0.167 1.001l0.387 0.86h-2.357c-0.133 0-0.26 0.053-0.354 0.146s-0.146 0.221-0.146 0.354 0.053 0.26 0.146 0.354c0.094 0.094 0.221 0.146 0.354 0.146h3.85l-0.143 1h-3.707c-0.133 0-0.26 0.053-0.354 0.146s-0.146 0.221-0.146 0.354 0.053 0.26 0.146 0.354c0.094 0.094 0.221 0.146 0.354 0.146h1.071l0.154 1h-1.225c-0.133 0-0.26 0.053-0.354 0.146s-0.146 0.221-0.146 0.354c0 5.238 4.486 9.5 10 9.5 2.161 0.004 4.268-0.672 6.022-1.934l-0.451 2.934h-11.142l-0.242-1.576c-0.022-0.129-0.094-0.244-0.2-0.321s-0.238-0.109-0.368-0.089c-0.129 0.020-0.246 0.089-0.325 0.194s-0.113 0.236-0.096 0.366l0.308 2c0.018 0.118 0.077 0.226 0.168 0.305s0.206 0.121 0.326 0.121h12c0.119-0 0.235-0.043 0.325-0.121s0.15-0.185 0.169-0.303l0.69-4.483c0.886-0.855 1.591-1.879 2.075-3.012s0.736-2.35 0.741-3.581c0-0.133-0.053-0.26-0.146-0.354s-0.221-0.146-0.354-0.146h-1.225l0.154-1h1.071c0.133 0 0.26-0.053 0.354-0.146s0.146-0.221 0.146-0.354v-2c0-0.133-0.053-0.26-0.146-0.354s-0.221-0.146-0.354-0.146h-1.485l1.796-3.11c0.065-0.115 0.082-0.251 0.048-0.378s-0.118-0.236-0.233-0.302c-0.114-0.066-0.25-0.084-0.378-0.050s-0.237 0.117-0.304 0.231l-2.085 3.61h-1.154l7.361-12.75c0.032-0.059 0.075-0.111 0.127-0.153s0.112-0.073 0.177-0.091c0.064-0.018 0.132-0.023 0.198-0.015s0.131 0.030 0.188 0.063c0.058 0.033 0.109 0.078 0.149 0.132s0.070 0.114 0.086 0.179c0.016 0.065 0.019 0.132 0.009 0.199s-0.034 0.13-0.069 0.186l-3.988 6.909c-0.033 0.057-0.055 0.12-0.064 0.185s-0.005 0.132 0.012 0.196c0.017 0.064 0.046 0.124 0.086 0.176s0.090 0.096 0.147 0.129c0.057 0.033 0.12 0.054 0.186 0.063s0.132 0.004 0.195-0.013c0.064-0.017 0.123-0.047 0.175-0.087s0.096-0.091 0.128-0.148l3.989-6.909c0.099-0.17 0.163-0.359 0.189-0.554s0.013-0.394-0.039-0.584zM7.915 11.513l-0.5-0.866 1.732-1 0.5 0.866-1.732 1zM9.745 4.683l0.5 0.866-0.866 0.5-0.5-0.866 0.866-0.5zM4.995 8.965c-0.268 0-0.534 0.043-0.787 0.128l-0.525-0.909 4.33-2.5 0.5 0.866-0.433 0.25c-0.115 0.066-0.199 0.175-0.233 0.304s-0.016 0.265 0.050 0.379l0.75 1.3-0.55 0.318-1.224 0.707c-0.236-0.265-0.525-0.477-0.848-0.623s-0.674-0.22-1.029-0.22h-0zM14.5 13v-1h5v1h-5zM16.5 5.5h1v1h-1v-1zM15.5 9.5h3c0.265 0 0.52 0.105 0.707 0.293s0.293 0.442 0.293 0.707v0.5h-5v-0.5c0-0.265 0.105-0.52 0.293-0.707s0.442-0.293 0.707-0.293zM8.567 18l-0.717 5-0.767-5h1.484zM6.379 20l0.65 4.217c-0.89-1.236-1.414-2.697-1.514-4.217h0.864zM23.485 20c-0.099 1.519-0.623 2.98-1.512 4.216l0.648-4.216h0.864zM23.5 17h-5.643c-0.133 0-0.26 0.053-0.354 0.146s-0.146 0.221-0.146 0.354 0.053 0.26 0.146 0.354c0.094 0.094 0.221 0.146 0.354 0.146h4.060l-1.17 7.609c-1.679 1.506-3.846 2.355-6.101 2.39s-4.447-0.746-6.172-2.2l1.27-0.763c0.214-0.129 0.462-0.19 0.711-0.178s0.489 0.1 0.689 0.25c0.391 0.291 0.866 0.449 1.355 0.449s0.963-0.157 1.354-0.449c0.2-0.15 0.44-0.237 0.689-0.25s0.497 0.049 0.711 0.178c0.215 0.13 0.462 0.196 0.713 0.191s0.495-0.082 0.705-0.22c0.209-0.139 0.375-0.334 0.477-0.563s0.138-0.483 0.102-0.731l-0.323-2.263c-0.019-0.131-0.089-0.25-0.195-0.329s-0.239-0.114-0.371-0.095c-0.131 0.019-0.25 0.089-0.329 0.195s-0.114 0.239-0.095 0.371l0.323 2.263c0.010 0.061 0.001 0.124-0.024 0.18s-0.067 0.104-0.119 0.138c-0.051 0.035-0.111 0.054-0.172 0.056s-0.122-0.015-0.174-0.048c-0.271-0.161-0.573-0.263-0.885-0.3l-0.386-5.415c-0.005-0.066-0.022-0.13-0.052-0.189s-0.070-0.111-0.12-0.155-0.107-0.076-0.17-0.097c-0.062-0.021-0.128-0.029-0.194-0.024s-0.13 0.022-0.189 0.052c-0.059 0.029-0.111 0.070-0.155 0.12s-0.076 0.107-0.097 0.17c-0.021 0.062-0.029 0.128-0.024 0.194l0.389 5.441c-0.228 0.076-0.443 0.188-0.635 0.333-0.218 0.162-0.483 0.25-0.755 0.25s-0.536-0.088-0.754-0.25c-0.17-0.126-0.357-0.229-0.555-0.304l0.805-6.443c0.013-0.13-0.025-0.26-0.106-0.362s-0.199-0.168-0.329-0.184c-0.13-0.016-0.26 0.019-0.364 0.098s-0.173 0.195-0.192 0.325l-0.803 6.427c-0.344 0.029-0.676 0.137-0.971 0.314l-0.586 0.35 1.2-8.411c0.021-0.143 0.053-0.284 0.096-0.421l0.005-0.010c0.13-0.409 0.355-0.781 0.658-1.086 0.105-0.105 0.248-0.164 0.396-0.164s0.291 0.059 0.397 0.164c0.297 0.284 0.692 0.443 1.103 0.443s0.806-0.159 1.104-0.443c0.105-0.105 0.248-0.164 0.396-0.164s0.291 0.059 0.397 0.164c0.302 0.304 0.528 0.676 0.658 1.085l0.004 0.011c0.043 0.138 0.076 0.279 0.096 0.422l0.5 3.49c0.008 0.066 0.029 0.13 0.062 0.189s0.077 0.109 0.13 0.15c0.053 0.041 0.113 0.070 0.178 0.087s0.132 0.021 0.198 0.011c0.066-0.009 0.13-0.032 0.187-0.067s0.107-0.080 0.146-0.134 0.067-0.115 0.083-0.18c0.015-0.065 0.017-0.132 0.006-0.198l-0.493-3.467h7.35v1zM15.85 15c-0.164-0.367-0.386-0.705-0.659-1h4.309v0.222l-0.45 0.778h-3.2z"></path>
</svg>
