<!-- Generated by IcoMoon.io -->
<svg version="1.1" xmlns="http://www.w3.org/2000/svg" width="32" height="32" viewBox="0 0 32 32">
<title>feather-duster</title>
<path d="M4.141 16c0.276 0 0.5-0.224 0.5-0.5s-0.224-0.5-0.5-0.5c-0.276 0-0.5 0.224-0.5 0.5s0.224 0.5 0.5 0.5z"></path>
<path d="M18.932 12.372c-0.192 0.192-0.192 0.503 0 0.696s0.504 0.192 0.696 0c0.192-0.192 0.192-0.504 0-0.696s-0.503-0.193-0.696 0z"></path>
<path d="M20.324 10.98c-0.192 0.192-0.192 0.504 0 0.696s0.503 0.192 0.696 0c0.192-0.192 0.192-0.503 0-0.696s-0.504-0.192-0.696 0z"></path>
<path d="M32 10.050c-0.010-0.879-0.674-1.42-1.432-1.729 0.813-0.504 1.635-1.289 1.318-2.311-0.274-0.865-1.168-1.224-1.883-1.371 0.533-0.826 0.868-1.914 0.070-2.712s-1.885-0.462-2.712 0.071c-0.147-0.715-0.506-1.609-1.373-1.885-1.020-0.314-1.806 0.506-2.309 1.319-0.309-0.758-0.851-1.422-1.729-1.432-0.007 0-0.013 0-0.020 0-1.072 0-1.696 0.968-2.028 1.766-0.57-0.625-1.402-1.124-2.372-0.771-1.235 0.447-1.608 1.911-1.709 3.016-0.577-0.42-1.336-0.664-2.163-0.259-1.135 0.563-1.329 2.233-1.328 3.326-0.742-0.32-1.69-0.435-2.414 0.288-0.91 0.909-0.758 2.621-0.572 3.61-0.743-0.006-1.638 0.262-2.050 1.244-0.978 2.317 1.102 5.889 1.685 6.818l-1.26 3.14-5.409 5.415-1.141 0.379c-0.705 0.24-1.179 0.899-1.179 1.638 0 0.46 0.18 0.892 0.506 1.219l0.675 0.675c0.327 0.326 0.759 0.506 1.219 0.506 0.74 0 1.399-0.474 1.639-1.182l0.378-1.137 5.413-5.409 3.141-1.261c0.756 0.475 3.266 1.943 5.425 1.943 0.49 0 0.963-0.076 1.392-0.258 0.982-0.412 1.249-1.306 1.245-2.051 0.989 0.187 2.7 0.339 3.61-0.572 0.724-0.724 0.608-1.672 0.288-2.414h0.013c1.093 0 2.753-0.198 3.314-1.33 0.406-0.826 0.161-1.585-0.259-2.161 1.104-0.1 2.569-0.473 3.015-1.708 0.353-0.971-0.146-1.802-0.771-2.374 0.804-0.334 1.778-0.963 1.767-2.047zM3.616 29.067c-0.055 0.054-0.096 0.122-0.122 0.196l-0.414 1.247c-0.102 0.299-0.379 0.5-0.691 0.5-0.192 0-0.374-0.076-0.511-0.214l-0.675-0.675c-0.137-0.138-0.214-0.32-0.214-0.512 0-0.311 0.202-0.589 0.498-0.691l1.25-0.415c0.074-0.024 0.141-0.066 0.196-0.121l5.211-5.216 0.688 0.687-5.216 5.212zM9.66 23.268l-0.928-0.928 0.99-2.466 1.198 1.203c0.015 0.015 0.031 0.029 0.047 0.041l1.159 1.159-2.466 0.99zM29.018 11.435c-0.207 0.044-0.364 0.213-0.392 0.422s0.077 0.415 0.265 0.512c0.015 0.008 1.521 0.803 1.174 1.761-0.379 1.046-2.555 1.123-3.286 1.066-0.23-0.018-0.444 0.126-0.515 0.346s0.019 0.461 0.217 0.58c0.014 0.008 1.338 0.824 0.871 1.775-0.425 0.857-2.563 0.809-3.278 0.726-0.202-0.025-0.398 0.078-0.496 0.255s-0.079 0.398 0.048 0.556c0.010 0.013 0.992 1.25 0.301 1.942-0.708 0.708-2.708 0.335-3.352 0.149-0.174-0.051-0.362-0.002-0.491 0.126s-0.178 0.316-0.129 0.491c0.014 0.051 0.341 1.263-0.564 1.643-1.243 0.523-3.208-0.186-4.648-0.909 0.476 0.082 0.964 0.14 1.433 0.14 0.901 0 1.726-0.198 2.229-0.769 0.296-0.335 0.435-0.732 0.401-1.148-0.020-0.244-0.096-0.471-0.197-0.672 0.998-0.059 2.432-0.3 3.17-1.156 0.339-0.393 0.499-0.856 0.462-1.339-0.027-0.357-0.156-0.682-0.312-0.954 1.071-0.121 2.658-0.497 3.195-1.649 0.618-1.334-0.322-2.369-0.906-2.73-0.233-0.144-0.539-0.073-0.685 0.16s-0.075 0.541 0.157 0.688c0.095 0.061 0.918 0.615 0.527 1.461-0.431 0.925-2.497 1.126-3.244 1.126-0.014 0-0.031 0-0.042 0-0.208 0-0.394 0.129-0.467 0.323-0.075 0.196-0.018 0.418 0.14 0.555 0.11 0.096 1.060 0.96 0.418 1.705-0.689 0.799-2.692 0.86-3.405 0.813-0.215-0.012-0.416 0.114-0.495 0.315s-0.021 0.431 0.145 0.57c0.132 0.11 0.515 0.504 0.543 0.864 0.007 0.091-0.002 0.231-0.155 0.404-0.704 0.8-3.15 0.382-5.161-0.353l-0.507-0.507 3.822-3.826c0.195-0.196 0.195-0.512-0-0.707s-0.512-0.196-0.707 0l-3.824 3.828-0.509-0.511c-0.735-2.011-1.154-4.459-0.353-5.164 0.173-0.154 0.312-0.162 0.404-0.155 0.359 0.028 0.754 0.41 0.864 0.542 0.176 0.214 0.49 0.244 0.703 0.069s0.245-0.49 0.070-0.703c-0.070-0.086-0.708-0.836-1.555-0.904-0.416-0.034-0.813 0.106-1.147 0.401-0.868 0.764-0.874 2.266-0.635 3.655-0.721-1.44-1.427-3.401-0.904-4.641 0.379-0.903 1.591-0.576 1.641-0.563 0.175 0.051 0.363 0.001 0.492-0.128s0.177-0.317 0.127-0.492c-0.187-0.645-0.56-2.644 0.148-3.352 0.691-0.692 1.929 0.29 1.94 0.299 0.158 0.129 0.379 0.149 0.557 0.050s0.279-0.295 0.255-0.497c-0.107-0.899-0.070-2.883 0.724-3.277 0.946-0.463 1.744 0.817 1.777 0.87 0.121 0.198 0.36 0.287 0.581 0.218 0.221-0.071 0.364-0.284 0.346-0.515-0.057-0.732 0.016-2.906 1.067-3.286 0.955-0.345 1.752 1.159 1.759 1.174 0.097 0.189 0.302 0.294 0.512 0.268 0.21-0.029 0.38-0.187 0.423-0.394 0.086-0.418 0.572-1.98 1.368-1.98h0.007c0.749 0.008 1.039 1.451 1.082 1.956 0.020 0.235 0.201 0.425 0.434 0.454 0.232 0.031 0.457-0.107 0.535-0.329 0.254-0.717 1.035-2.219 1.698-2.014 0.625 0.198 0.773 1.455 0.776 1.881 0.001 0.2 0.121 0.381 0.306 0.458s0.397 0.038 0.541-0.1c0.014-0.014 1.415-1.31 2.054-0.671 0.635 0.635-0.658 2.041-0.672 2.055-0.138 0.144-0.177 0.357-0.099 0.541s0.258 0.304 0.458 0.306c0.425 0.003 1.682 0.151 1.879 0.773 0.207 0.667-1.296 1.447-2.013 1.7-0.223 0.079-0.36 0.302-0.33 0.536s0.22 0.415 0.455 0.434c0.411 0.033 1.948 0.315 1.956 1.082 0.008 0.783-1.465 1.267-1.982 1.375z"></path>
<path d="M26.193 8.698c0.732-0.959 1.345-2.346 0.401-3.292s-2.332-0.332-3.291 0.401c-0.342-0.665-0.96-1.323-1.915-1.224-1.32 0.125-2.176 1.593-2.594 2.541-0.512-0.391-1.255-0.649-2.125-0.246-1.152 0.535-1.527 2.123-1.648 3.194-0.271-0.157-0.596-0.285-0.954-0.312-0.48-0.035-0.945 0.124-1.339 0.463-0.411 0.354-0.719 0.903-0.914 1.629-0.072 0.266 0.086 0.541 0.352 0.613s0.542-0.086 0.613-0.352c0.143-0.53 0.346-0.911 0.603-1.133 0.745-0.643 1.609 0.308 1.704 0.416 0.136 0.16 0.358 0.217 0.555 0.143s0.326-0.263 0.324-0.473c-0.007-0.712 0.185-2.844 1.125-3.281 0.846-0.39 1.401 0.431 1.46 0.524 0.103 0.166 0.292 0.257 0.487 0.233s0.356-0.159 0.415-0.345c0.205-0.649 1.018-2.521 2.031-2.618 0.802-0.073 1.119 1.18 1.122 1.192 0.042 0.174 0.176 0.312 0.348 0.361 0.173 0.052 0.359 0.002 0.487-0.123 0.017-0.016 1.723-1.617 2.447-0.894s-0.877 2.43-0.894 2.448c-0.125 0.128-0.171 0.313-0.123 0.485s0.186 0.306 0.36 0.35c0.012 0.003 1.27 0.329 1.193 1.122-0.034 0.357-0.291 0.722-0.764 1.086-0.219 0.168-0.26 0.482-0.092 0.701 0.098 0.126 0.246 0.193 0.396 0.193 0.107 0 0.214-0.033 0.305-0.103 0.702-0.539 1.088-1.14 1.15-1.783 0.092-0.956-0.56-1.575-1.225-1.916z"></path>
<path d="M17.535 13.759l-1.044 1.044c-0.196 0.195-0.196 0.511 0 0.707 0.097 0.097 0.225 0.146 0.353 0.146s0.256-0.049 0.354-0.146l1.044-1.044c0.195-0.195 0.195-0.511 0-0.707s-0.512-0.195-0.707 0z"></path>
<path d="M3 4.5c0.276 0 0.5-0.223 0.5-0.5 0-0.827 0.673-1.5 1.5-1.5s1.5 0.673 1.5 1.5c0 0.422-0.178 0.824-0.489 1.109-0.345 0.247-3.308 2.481-3.108 6.246 0.014 0.267 0.235 0.474 0.499 0.474 0.009 0 0.018 0 0.027-0 0.276-0.015 0.487-0.251 0.473-0.526-0.178-3.344 2.677-5.371 2.707-5.391 0.016-0.011 0.032-0.024 0.046-0.036 0.538-0.474 0.846-1.157 0.846-1.875 0-1.378-1.122-2.5-2.5-2.5s-2.5 1.122-2.5 2.5c0 0.277 0.224 0.5 0.5 0.5z"></path>
<path d="M2.502 14.657c0.094 0.077 0.206 0.115 0.319 0.115 0.144 0 0.287-0.062 0.385-0.181 0.176-0.213 0.146-0.528-0.067-0.704-1.815-1.502-1.199-4.233-1.191-4.268 0.064-0.268-0.101-0.538-0.369-0.602-0.268-0.062-0.538 0.101-0.603 0.369-0.033 0.137-0.777 3.366 1.526 5.271z"></path>
<path d="M13.909 26.462c-0.275-0.024-0.517 0.18-0.541 0.455s0.179 0.517 0.454 0.541c0.275 0.024 0.518-0.179 0.542-0.454s-0.18-0.518-0.455-0.542z"></path>
<path d="M19.533 29.657c-0.028 0.004-2.808 0.384-4.148-1.559-0.157-0.227-0.469-0.284-0.696-0.128s-0.284 0.469-0.128 0.696c1.217 1.765 3.247 2.028 4.351 2.028 0.436 0 0.727-0.041 0.767-0.047 0.272-0.041 0.46-0.295 0.42-0.567s-0.293-0.461-0.567-0.422z"></path>
<path d="M8.782 5.5c0.010 0 0.021-0 0.031-0.001 2.151-0.133 2.924-1.329 3.157-1.837 0.325-0.71 0.295-1.512-0.075-1.998-0.318-0.417-0.726-0.668-1.18-0.726-0.756-0.095-1.369 0.369-1.436 0.422-0.217 0.171-0.253 0.486-0.082 0.703s0.486 0.253 0.702 0.082c0.070-0.055 0.389-0.254 0.691-0.214 0.187 0.024 0.353 0.135 0.509 0.339 0.106 0.139 0.164 0.534-0.039 0.975-0.196 0.428-0.756 1.159-2.309 1.255-0.275 0.017-0.485 0.254-0.468 0.53 0.017 0.265 0.237 0.469 0.499 0.469z"></path>
<path d="M28.275 22.9c-0.535 0.070-1.499 0.404-2.257 1.795-0.131-0.034-0.264-0.065-0.404-0.077-0.713-0.062-1.202-0.007-1.981 0.722-0.023 0.027-2.291 2.699-5.606 2.225-0.273-0.038-0.527 0.152-0.565 0.426s0.151 0.526 0.425 0.565c3.737 0.529 6.218-2.229 6.494-2.551 0.31-0.286 0.727-0.429 1.146-0.391 0.824 0.072 1.436 0.802 1.364 1.625s-0.801 1.438-1.626 1.364c-0.276-0.030-0.517 0.179-0.541 0.454s0.179 0.518 0.454 0.542c0.074 0.006 0.147 0.010 0.22 0.010 1.281 0 2.375-0.983 2.489-2.282 0.077-0.88-0.317-1.69-0.968-2.194 0.408-0.73 0.927-1.167 1.487-1.241 0.464-0.058 0.855 0.135 1.023 0.341 0.476 0.587 0.055 1.165 0.004 1.231-0.171 0.215-0.137 0.527 0.076 0.7 0.093 0.075 0.204 0.112 0.314 0.112 0.146 0 0.29-0.064 0.389-0.185 0.347-0.429 0.794-1.501-0.007-2.488-0.425-0.525-1.182-0.801-1.93-0.703z"></path>
</svg>
