<!-- Generated by IcoMoon.io -->
<svg version="1.1" xmlns="http://www.w3.org/2000/svg" width="32" height="32" viewBox="0 0 32 32">
<title>glass-cleaning</title>
<path d="M30.5 27c0.133 0 0.26-0.053 0.354-0.146s0.146-0.221 0.146-0.354-0.053-0.26-0.146-0.354c-0.094-0.094-0.221-0.146-0.354-0.146h-1.5v-19.5c0-0.133-0.053-0.26-0.146-0.354s-0.221-0.146-0.354-0.146-0.26 0.053-0.354 0.146c-0.094 0.094-0.146 0.221-0.146 0.354v19.5h-12v-1c0.133 0 0.26-0.053 0.354-0.146s0.146-0.221 0.146-0.354v-1.5h1c0.398 0 0.779-0.158 1.061-0.439s0.439-0.663 0.439-1.061v-13c0-0.133-0.053-0.26-0.146-0.354s-0.221-0.146-0.354-0.146-0.26 0.053-0.354 0.146c-0.094 0.094-0.146 0.221-0.146 0.354v3.324c-0.267-0.135-0.498-0.332-0.673-0.575s-0.289-0.524-0.332-0.82c-0.017-0.119-0.076-0.228-0.167-0.307s-0.207-0.122-0.328-0.122c-0.12 0-0.237 0.043-0.328 0.122s-0.15 0.188-0.167 0.307c-0.058 0.397-0.243 0.765-0.527 1.049s-0.652 0.469-1.049 0.527c-0.119 0.017-0.228 0.076-0.307 0.167s-0.122 0.207-0.122 0.328c0 0.12 0.043 0.237 0.122 0.328s0.188 0.15 0.307 0.167c0.397 0.058 0.765 0.243 1.049 0.527s0.469 0.652 0.527 1.049c0.017 0.119 0.076 0.228 0.167 0.307s0.207 0.122 0.328 0.122c0.12 0 0.237-0.043 0.328-0.122s0.15-0.188 0.167-0.307c0.043-0.296 0.157-0.577 0.332-0.82s0.406-0.44 0.673-0.575v6.824h-1v-2.5c0-0.133-0.053-0.26-0.146-0.354s-0.221-0.146-0.354-0.146-0.26 0.053-0.354 0.146c-0.094 0.094-0.146 0.221-0.146 0.354v2.5h-1v-1c0-0.133-0.053-0.26-0.146-0.354s-0.221-0.146-0.354-0.146-0.26 0.053-0.354 0.146c-0.094 0.094-0.146 0.221-0.146 0.354v1h-1v-2c0-0.133-0.053-0.26-0.146-0.354s-0.221-0.146-0.354-0.146-0.26 0.053-0.354 0.146c-0.094 0.094-0.146 0.221-0.146 0.354v2h-1v-2.989c0.024-0.004 0.046-0.012 0.071-0.016 0.119-0.017 0.228-0.076 0.307-0.167s0.122-0.207 0.122-0.328c0-0.12-0.043-0.237-0.122-0.328s-0.188-0.15-0.307-0.167c-0.397-0.058-0.765-0.243-1.049-0.527s-0.469-0.652-0.527-1.049c-0.017-0.119-0.076-0.228-0.167-0.307s-0.207-0.122-0.328-0.122c-0.12 0-0.237 0.043-0.328 0.122s-0.15 0.188-0.167 0.307c-0.058 0.397-0.243 0.765-0.527 1.049s-0.652 0.469-1.049 0.527c-0.119 0.017-0.228 0.076-0.307 0.167s-0.122 0.207-0.122 0.328c0 0.12 0.043 0.237 0.122 0.328s0.188 0.15 0.307 0.167c0.397 0.058 0.765 0.243 1.049 0.527s0.469 0.652 0.527 1.049c0.017 0.119 0.076 0.228 0.167 0.307s0.207 0.122 0.328 0.122c0.12 0 0.237-0.043 0.328-0.122s0.15-0.188 0.167-0.307c0.057-0.385 0.233-0.742 0.505-1.021v3.95c0 0.398 0.158 0.779 0.439 1.061s0.663 0.439 1.061 0.439h1v1.5c0 0.133 0.053 0.26 0.146 0.354s0.221 0.146 0.354 0.146v1h-9v-6.5c0-0.133-0.053-0.26-0.146-0.354s-0.221-0.146-0.354-0.146-0.26 0.053-0.354 0.146c-0.094 0.094-0.146 0.221-0.146 0.354v6.5h-1.5c-0.133 0-0.26 0.053-0.354 0.146s-0.146 0.221-0.146 0.354v2c0 0.133 0.053 0.26 0.146 0.354s0.221 0.146 0.354 0.146h11.5v1.5c0 0.133 0.053 0.26 0.146 0.354s0.221 0.146 0.354 0.146 0.26-0.053 0.354-0.146c0.094-0.094 0.146-0.221 0.146-0.354v-5.5h1v5.5c0 0.133 0.053 0.26 0.146 0.354s0.221 0.146 0.354 0.146 0.26-0.053 0.354-0.146c0.094-0.094 0.146-0.221 0.146-0.354v-1.5h14.5c0.133 0 0.26-0.053 0.354-0.146s0.146-0.221 0.146-0.354-0.053-0.26-0.146-0.354c-0.094-0.094-0.221-0.146-0.354-0.146h-14.5v-1h14.5zM16.5 13.19c-0.189-0.267-0.423-0.501-0.69-0.69 0.267-0.189 0.501-0.423 0.69-0.69 0.189 0.267 0.423 0.501 0.69 0.69-0.267 0.189-0.501 0.423-0.69 0.69zM2 28v-1h11v1h-11zM9 17.19c-0.189-0.267-0.423-0.501-0.69-0.69 0.267-0.189 0.501-0.423 0.69-0.69 0.189 0.267 0.423 0.501 0.69 0.69-0.267 0.189-0.501 0.423-0.69 0.69zM11 21.5v-0.5h7v0.5c0 0.133-0.053 0.26-0.146 0.354s-0.221 0.146-0.354 0.146h-6c-0.133 0-0.26-0.053-0.354-0.146s-0.146-0.221-0.146-0.354zM13.5 24v-1h2v1h-2z"></path>
<path d="M1.5 5h1.5v12.5c0 0.133 0.053 0.26 0.146 0.354s0.221 0.146 0.354 0.146 0.26-0.053 0.354-0.146c0.094-0.094 0.146-0.221 0.146-0.354v-12.5h15c0.133 0 0.26-0.053 0.354-0.146s0.146-0.221 0.146-0.354-0.053-0.26-0.146-0.354c-0.094-0.094-0.221-0.146-0.354-0.146h-17v-2h10.5c0.133 0 0.26-0.053 0.354-0.146s0.146-0.221 0.146-0.354-0.053-0.26-0.146-0.354c-0.094-0.094-0.221-0.146-0.354-0.146h-11c-0.133 0-0.26 0.053-0.354 0.146s-0.146 0.221-0.146 0.354v3c0 0.133 0.053 0.26 0.146 0.354s0.221 0.146 0.354 0.146z"></path>
<path d="M30.5 1h-16c-0.133 0-0.26 0.053-0.354 0.146s-0.146 0.221-0.146 0.354 0.053 0.26 0.146 0.354c0.094 0.094 0.221 0.146 0.354 0.146h15.5v2h-9c-0.133 0-0.26 0.053-0.354 0.146s-0.146 0.221-0.146 0.354 0.053 0.26 0.146 0.354c0.094 0.094 0.221 0.146 0.354 0.146h9.5c0.133 0 0.26-0.053 0.354-0.146s0.146-0.221 0.146-0.354v-3c0-0.133-0.053-0.26-0.146-0.354s-0.221-0.146-0.354-0.146z"></path>
<path d="M14.5 15c-0.133 0-0.26 0.053-0.354 0.146s-0.146 0.221-0.146 0.354v0.25h-0.25c-0.133 0-0.26 0.053-0.354 0.146s-0.146 0.221-0.146 0.354 0.053 0.26 0.146 0.354c0.094 0.094 0.221 0.146 0.354 0.146h0.25v0.25c0 0.133 0.053 0.26 0.146 0.354s0.221 0.146 0.354 0.146 0.26-0.053 0.354-0.146c0.094-0.094 0.146-0.221 0.146-0.354v-0.25h0.25c0.133 0 0.26-0.053 0.354-0.146s0.146-0.221 0.146-0.354-0.053-0.26-0.146-0.354c-0.094-0.094-0.221-0.146-0.354-0.146h-0.25v-0.25c0-0.133-0.053-0.26-0.146-0.354s-0.221-0.146-0.354-0.146z"></path>
<path d="M8.5 11v-0.25h0.25c0.133 0 0.26-0.053 0.354-0.146s0.146-0.221 0.146-0.354-0.053-0.26-0.146-0.354c-0.094-0.094-0.221-0.146-0.354-0.146h-0.25v-0.25c0-0.133-0.053-0.26-0.146-0.354s-0.221-0.146-0.354-0.146-0.26 0.053-0.354 0.146c-0.094 0.094-0.146 0.221-0.146 0.354v0.25h-0.25c-0.133 0-0.26 0.053-0.354 0.146s-0.146 0.221-0.146 0.354 0.053 0.26 0.146 0.354c0.094 0.094 0.221 0.146 0.354 0.146h0.25v0.25c0 0.133 0.053 0.26 0.146 0.354s0.221 0.146 0.354 0.146 0.26-0.053 0.354-0.146c0.094-0.094 0.146-0.221 0.146-0.354z"></path>
<path d="M14.25 10.25c0-0.133-0.053-0.26-0.146-0.354s-0.221-0.146-0.354-0.146h-0.25v-0.25c0-0.133-0.053-0.26-0.146-0.354s-0.221-0.146-0.354-0.146-0.26 0.053-0.354 0.146c-0.094 0.094-0.146 0.221-0.146 0.354v0.25h-0.25c-0.133 0-0.26 0.053-0.354 0.146s-0.146 0.221-0.146 0.354 0.053 0.26 0.146 0.354c0.094 0.094 0.221 0.146 0.354 0.146h0.25v0.25c0 0.133 0.053 0.26 0.146 0.354s0.221 0.146 0.354 0.146 0.26-0.053 0.354-0.146c0.094-0.094 0.146-0.221 0.146-0.354v-0.25h0.25c0.133 0 0.26-0.053 0.354-0.146s0.146-0.221 0.146-0.354z"></path>
<path d="M12 13v1.5c0 0.133 0.053 0.26 0.146 0.354s0.221 0.146 0.354 0.146 0.26-0.053 0.354-0.146c0.094-0.094 0.146-0.221 0.146-0.354v-1.5c0-0.133-0.053-0.26-0.146-0.354s-0.221-0.146-0.354-0.146-0.26 0.053-0.354 0.146c-0.094 0.094-0.146 0.221-0.146 0.354z"></path>
<path d="M8 22v-2c0-0.133-0.053-0.26-0.146-0.354s-0.221-0.146-0.354-0.146-0.26 0.053-0.354 0.146c-0.094 0.094-0.146 0.221-0.146 0.354v2c0 0.133 0.053 0.26 0.146 0.354s0.221 0.146 0.354 0.146 0.26-0.053 0.354-0.146c0.094-0.094 0.146-0.221 0.146-0.354z"></path>
<path d="M7 13v0.5c0 0.133 0.053 0.26 0.146 0.354s0.221 0.146 0.354 0.146 0.26-0.053 0.354-0.146c0.094-0.094 0.146-0.221 0.146-0.354v-0.5c0-0.133-0.053-0.26-0.146-0.354s-0.221-0.146-0.354-0.146-0.26 0.053-0.354 0.146c-0.094 0.094-0.146 0.221-0.146 0.354z"></path>
<path d="M17.5 24.5c0 0.133 0.053 0.26 0.146 0.354s0.221 0.146 0.354 0.146h8.5c0.133 0 0.26-0.053 0.354-0.146s0.146-0.221 0.146-0.354v-18c0-0.133-0.053-0.26-0.146-0.354s-0.221-0.146-0.354-0.146h-21c-0.133 0-0.26 0.053-0.354 0.146s-0.146 0.221-0.146 0.354v3.5c0 0.133 0.053 0.26 0.146 0.354s0.221 0.146 0.354 0.146 0.26-0.053 0.354-0.146c0.094-0.094 0.146-0.221 0.146-0.354v-3h1.5v0.5c0 0.133 0.053 0.26 0.146 0.354s0.221 0.146 0.354 0.146 0.26-0.053 0.354-0.146c0.094-0.094 0.146-0.221 0.146-0.354v-0.5h1.5v7.25c0 0.133 0.053 0.26 0.146 0.354s0.221 0.146 0.354 0.146 0.26-0.053 0.354-0.146c0.094-0.094 0.146-0.221 0.146-0.354v-7.25h1v0.5c0 0.133 0.053 0.26 0.146 0.354s0.221 0.146 0.354 0.146 0.26-0.053 0.354-0.146c0.094-0.094 0.146-0.221 0.146-0.354v-0.5h1v1.5c0 0.133 0.053 0.26 0.146 0.354s0.221 0.146 0.354 0.146 0.26-0.053 0.354-0.146c0.094-0.094 0.146-0.221 0.146-0.354v-1.5h1v2c0 0.133 0.053 0.26 0.146 0.354s0.221 0.146 0.354 0.146 0.26-0.053 0.354-0.146c0.094-0.094 0.146-0.221 0.146-0.354v-2h9v17h-8c-0.133 0-0.26 0.053-0.354 0.146s-0.146 0.221-0.146 0.354z"></path>
<path d="M6 12c0-0.133-0.053-0.26-0.146-0.354s-0.221-0.146-0.354-0.146-0.26 0.053-0.354 0.146c-0.094 0.094-0.146 0.221-0.146 0.354v12.5c0 0.133 0.053 0.26 0.146 0.354s0.221 0.146 0.354 0.146h5.5c0.133 0 0.26-0.053 0.354-0.146s0.146-0.221 0.146-0.354-0.053-0.26-0.146-0.354c-0.094-0.094-0.221-0.146-0.354-0.146h-1.5v-1c0-0.133-0.053-0.26-0.146-0.354s-0.221-0.146-0.354-0.146-0.26 0.053-0.354 0.146c-0.094 0.094-0.146 0.221-0.146 0.354v1h-2.5v-12z"></path>
<path d="M23.5 19c0.133 0 0.26-0.053 0.354-0.146s0.146-0.221 0.146-0.354v-1.092c0.334-0.118 0.615-0.35 0.794-0.655s0.244-0.664 0.185-1.013c-0.060-0.349-0.241-0.665-0.512-0.893s-0.613-0.353-0.967-0.353-0.696 0.125-0.967 0.353c-0.271 0.228-0.452 0.544-0.512 0.893s0.006 0.707 0.185 1.013c0.179 0.305 0.46 0.537 0.794 0.655v1.092c0 0.133 0.053 0.26 0.146 0.354s0.221 0.146 0.354 0.146zM23.5 15.5c0.099 0 0.196 0.029 0.278 0.084s0.146 0.133 0.184 0.224c0.038 0.091 0.048 0.192 0.028 0.289s-0.067 0.186-0.137 0.256-0.159 0.118-0.256 0.137c-0.097 0.019-0.198 0.009-0.289-0.028s-0.169-0.102-0.224-0.184c-0.055-0.082-0.084-0.179-0.084-0.278 0-0.133 0.053-0.26 0.146-0.354s0.221-0.146 0.354-0.146z"></path>
</svg>
