<!-- Generated by IcoMoon.io -->
<svg version="1.1" xmlns="http://www.w3.org/2000/svg" width="32" height="32" fill="#1264E3" viewBox="0 0 32 32">
<title>menu</title>
<path d="M30 7c0 0.265-0.105 0.52-0.293 0.707s-0.442 0.293-0.707 0.293h-26c-0.265 0-0.52-0.105-0.707-0.293s-0.293-0.442-0.293-0.707c0-0.265 0.105-0.52 0.293-0.707s0.442-0.293 0.707-0.293h26c0.265 0 0.52 0.105 0.707 0.293s0.293 0.442 0.293 0.707zM25 15h-22c-0.265 0-0.52 0.105-0.707 0.293s-0.293 0.442-0.293 0.707c0 0.265 0.105 0.52 0.293 0.707s0.442 0.293 0.707 0.293h22c0.265 0 0.52-0.105 0.707-0.293s0.293-0.442 0.293-0.707c0-0.265-0.105-0.52-0.293-0.707s-0.442-0.293-0.707-0.293zM16 24h-13c-0.265 0-0.52 0.105-0.707 0.293s-0.293 0.442-0.293 0.707 0.105 0.52 0.293 0.707c0.188 0.188 0.442 0.293 0.707 0.293h13c0.265 0 0.52-0.105 0.707-0.293s0.293-0.442 0.293-0.707-0.105-0.52-0.293-0.707c-0.188-0.188-0.442-0.293-0.707-0.293z"></path>
</svg>
