<!-- Generated by IcoMoon.io -->
<svg version="1.1" xmlns="http://www.w3.org/2000/svg" width="32" height="32" viewBox="0 0 32 32">
<title>vacuum-cleaner</title>
<path d="M28.5 26.5h-0.5v-0.5c0-0.398-0.158-0.779-0.439-1.061s-0.663-0.439-1.061-0.439h-0.5v-10.5c0-0.133-0.053-0.26-0.146-0.354s-0.221-0.146-0.354-0.146-0.26 0.053-0.354 0.146c-0.094 0.094-0.146 0.221-0.146 0.354v7.5h-2v-9h3c0.133 0 0.26-0.053 0.354-0.146s0.146-0.221 0.146-0.354v-4c0-0.133-0.053-0.26-0.146-0.354s-0.221-0.146-0.354-0.146c0-1.724-0.685-3.377-1.904-4.596s-2.872-1.904-4.596-1.904c-1.724 0-3.377 0.685-4.596 1.904s-1.904 2.872-1.904 4.596c0 0.133 0.053 0.26 0.146 0.354s0.221 0.146 0.354 0.146 0.26-0.053 0.354-0.146c0.094-0.094 0.146-0.221 0.146-0.354 0.001-0.336 0.033-0.67 0.095-1l1.932 0.58c-0.018 0.139-0.027 0.28-0.028 0.42-0.001 0.328-0.021 0.656-0.058 0.983l-0.478-0.212c-0.060-0.028-0.125-0.044-0.192-0.046s-0.132 0.008-0.195 0.031c-0.062 0.023-0.119 0.059-0.167 0.104s-0.087 0.1-0.114 0.161c-0.027 0.061-0.042 0.126-0.043 0.192s0.010 0.132 0.035 0.194c0.024 0.062 0.061 0.118 0.107 0.166s0.102 0.085 0.163 0.111l0.709 0.315c-0.114 0.512-0.271 1.014-0.47 1.5l-1.921-1.539c-0.062-0.050-0.136-0.084-0.214-0.1s-0.159-0.012-0.236 0.010c-0.077 0.022-0.147 0.062-0.205 0.117s-0.102 0.123-0.129 0.198l-0.044 0.128c-0.41 1.003-1.078 1.881-1.936 2.542l-1.116 0.858c-0.313-0.139-0.652-0.211-0.995-0.212-0.663 0-1.299 0.263-1.768 0.732s-0.732 1.105-0.732 1.768 0.263 1.299 0.732 1.768c0.469 0.469 1.105 0.732 1.768 0.732 0.49-0.003 0.968-0.152 1.373-0.429 0.376-0.031 0.736-0.17 1.035-0.4l2.142-1.647c0.283-0.219 0.553-0.452 0.811-0.7 0.644 0.943 1.030 2.038 1.118 3.176h-2.979c-0.133 0-0.26 0.053-0.354 0.146l-0.853 0.854h-4.586l-0.854-0.854c-0.094-0.094-0.221-0.146-0.354-0.146h-2.981c0.128-1.632 0.866-3.155 2.067-4.267s2.777-1.731 4.414-1.733c0.269-0 0.539 0.016 0.806 0.050 0.132 0.017 0.264-0.020 0.369-0.101s0.173-0.201 0.19-0.333c0.017-0.132-0.020-0.264-0.101-0.369s-0.201-0.173-0.333-0.19c-1.055-0.133-2.127-0.039-3.143 0.274s-1.955 0.84-2.752 1.544c-0.797 0.704-1.436 1.57-1.873 2.539s-0.663 2.021-0.662 3.085c0 0.133 0.053 0.26 0.146 0.354s0.221 0.146 0.354 0.146h3.293l0.854 0.854c0.094 0.094 0.221 0.146 0.354 0.146h5c0.133 0 0.26-0.053 0.354-0.146l0.853-0.854h2.793v5h-0.5c-0.789 0.002-1.563 0.211-2.247 0.606s-1.251 0.962-1.646 1.644c-0.066 0.115-0.085 0.251-0.050 0.379s0.118 0.237 0.232 0.304c0.076 0.044 0.162 0.068 0.25 0.067s0.174-0.023 0.25-0.067c0.076-0.044 0.139-0.107 0.183-0.183 0.308-0.531 0.749-0.972 1.281-1.279s1.134-0.47 1.747-0.472h0.5v1.278c-0.303-0.18-0.648-0.276-1-0.278-0.53 0-1.039 0.211-1.414 0.586s-0.586 0.884-0.586 1.414h-5.029c-0.124-1.099-0.648-2.115-1.473-2.852s-1.892-1.146-2.998-1.148h-0.5v-3.5c0-0.133-0.053-0.26-0.146-0.354s-0.221-0.146-0.354-0.146-0.26 0.053-0.354 0.146c-0.094 0.094-0.146 0.221-0.146 0.354v8.5c0 0.53 0.211 1.039 0.586 1.414s0.884 0.586 1.414 0.586c0.53 0 1.039-0.211 1.414-0.586s0.586-0.884 0.586-1.414h7c0 0.53 0.211 1.039 0.586 1.414s0.884 0.586 1.414 0.586c0.53 0 1.039-0.211 1.414-0.586s0.586-0.884 0.586-1.414v-10.5c-0.003-1.587-0.509-3.132-1.445-4.414 1.57-1.836 2.436-4.17 2.445-6.586 0-0.663 0.263-1.299 0.732-1.768s1.105-0.732 1.768-0.732 1.299 0.263 1.768 0.732c0.469 0.469 0.732 1.105 0.732 1.768-0.133 0-0.26 0.053-0.354 0.146s-0.146 0.221-0.146 0.354v4c0 0.133 0.053 0.26 0.146 0.354s0.221 0.146 0.354 0.146v12h-0.5c-0.398 0-0.779 0.158-1.061 0.439s-0.439 0.663-0.439 1.061v0.5h-0.5c-0.663 0.001-1.298 0.264-1.767 0.733s-0.732 1.104-0.733 1.767v1.5c0 0.133 0.053 0.26 0.146 0.354s0.221 0.146 0.354 0.146h3c0.133 0 0.26-0.053 0.354-0.146s0.146-0.221 0.146-0.354-0.053-0.26-0.146-0.354c-0.094-0.094-0.221-0.146-0.354-0.146h-2.5v-1c0-0.398 0.158-0.779 0.439-1.061s0.663-0.439 1.061-0.439h2.25c0.066 0 0.13 0.026 0.177 0.073s0.073 0.11 0.073 0.177c0 0.332 0.132 0.649 0.366 0.884s0.552 0.366 0.884 0.366h1.5c0.332 0 0.649-0.132 0.884-0.366s0.366-0.552 0.366-0.884c0-0.066 0.026-0.13 0.073-0.177s0.11-0.073 0.177-0.073h2.25c0.398 0 0.779 0.158 1.061 0.439s0.439 0.663 0.439 1.061v1h-7.5c-0.133 0-0.26 0.053-0.354 0.146s-0.146 0.221-0.146 0.354 0.053 0.26 0.146 0.354c0.094 0.094 0.221 0.146 0.354 0.146h8c0.133 0 0.26-0.053 0.354-0.146s0.146-0.221 0.146-0.354v-1.5c-0.001-0.663-0.264-1.298-0.733-1.767s-1.104-0.732-1.767-0.733zM4 29c0 0.265-0.105 0.52-0.293 0.707s-0.442 0.293-0.707 0.293c-0.265 0-0.52-0.105-0.707-0.293s-0.293-0.442-0.293-0.707v-1c0-0.265 0.105-0.52 0.293-0.707s0.442-0.293 0.707-0.293c0.265 0 0.52 0.105 0.707 0.293s0.293 0.442 0.293 0.707v1zM3 26c-0.352 0.002-0.697 0.098-1 0.278v-1.278h0.5c0.841 0.001 1.653 0.305 2.289 0.856s1.051 1.312 1.171 2.144h-0.96c0-0.53-0.211-1.039-0.586-1.414s-0.884-0.586-1.414-0.586zM7 15.5c0.001-0.391 0.155-0.767 0.429-1.047s0.646-0.441 1.038-0.45c-0.231 0.166-0.423 0.381-0.562 0.63s-0.221 0.525-0.24 0.809 0.024 0.569 0.128 0.834c0.104 0.265 0.265 0.504 0.471 0.7-0.352-0.056-0.672-0.235-0.903-0.506s-0.359-0.614-0.361-0.97zM10.3 16.378c-0.21 0.162-0.476 0.233-0.739 0.199s-0.502-0.172-0.664-0.382c-0.162-0.21-0.233-0.476-0.199-0.739s0.172-0.502 0.382-0.664l0.962-0.739 1.2 1.6-0.942 0.725zM15 29c0 0.265-0.105 0.52-0.293 0.707s-0.442 0.293-0.707 0.293c-0.265 0-0.52-0.105-0.707-0.293s-0.293-0.442-0.293-0.707v-1c0-0.265 0.105-0.52 0.293-0.707s0.442-0.293 0.707-0.293c0.265 0 0.52 0.105 0.707 0.293s0.293 0.442 0.293 0.707v1zM12.44 14.731l-0.407 0.313-1.2-1.6 0.386-0.3c0.197-0.153 0.386-0.316 0.566-0.489l0.439 0.5c0.089 0.091 0.21 0.145 0.337 0.15s0.252-0.039 0.348-0.122 0.157-0.201 0.169-0.328c0.012-0.127-0.024-0.254-0.102-0.355l-0.516-0.59c0.31-0.391 0.578-0.813 0.8-1.259l1.589 1.269c-0.603 1.092-1.423 2.049-2.41 2.811zM25.5 11.5h-3v-3h1v1.5c0 0.133 0.053 0.26 0.146 0.354s0.221 0.146 0.354 0.146 0.26-0.053 0.354-0.146c0.094-0.094 0.146-0.221 0.146-0.354v-1.5h1v3zM24.435 5.088l-1.859 0.744c-0.139-0.252-0.308-0.486-0.504-0.697l0.485-0.484c0.049-0.046 0.088-0.101 0.115-0.162s0.042-0.127 0.043-0.194c0.001-0.067-0.011-0.133-0.036-0.196s-0.062-0.119-0.11-0.166c-0.047-0.047-0.104-0.085-0.166-0.11s-0.129-0.038-0.196-0.037-0.133 0.016-0.194 0.043c-0.061 0.027-0.116 0.066-0.162 0.115l-0.557 0.557c-0.169-0.102-0.347-0.189-0.531-0.261l0.397-1.982c0.709 0.227 1.364 0.594 1.927 1.081s1.022 1.082 1.349 1.75zM15.776 3.465c0.512-0.474 1.111-0.846 1.763-1.096l0.575 1.92c-0.236 0.103-0.46 0.232-0.668 0.385-0.52-0.363-1.122-0.793-1.67-1.208zM14.368 5.538c0.182-0.475 0.43-0.923 0.736-1.33 0.523 0.4 1.1 0.813 1.615 1.175-0.173 0.225-0.318 0.47-0.432 0.731l-1.919-0.575zM19.081 4.027l-0.581-1.932c0.33-0.062 0.664-0.094 1-0.095 0.228 0.002 0.455 0.017 0.681 0.046l-0.394 1.968c-0.095-0.008-0.19-0.014-0.287-0.014-0.14 0.001-0.28 0.010-0.419 0.027zM22.922 6.769l1.871-0.75c0.136 0.482 0.206 0.98 0.207 1.481h-2c-0-0.246-0.026-0.49-0.078-0.731zM23 22.5h2v2h-2v-2zM25 27.75c0 0.066-0.026 0.13-0.073 0.177s-0.11 0.073-0.177 0.073h-1.5c-0.066 0-0.13-0.026-0.177-0.073s-0.073-0.11-0.073-0.177c0-0.332-0.132-0.649-0.366-0.884s-0.552-0.366-0.884-0.366h-0.75v-0.5c0-0.133 0.053-0.26 0.146-0.354s0.221-0.146 0.354-0.146h2v0.5c0 0.133 0.053 0.26 0.146 0.354s0.221 0.146 0.354 0.146 0.26-0.053 0.354-0.146c0.094-0.094 0.146-0.221 0.146-0.354v-0.5h2c0.133 0 0.26 0.053 0.354 0.146s0.146 0.221 0.146 0.354v0.5h-0.75c-0.332 0-0.649 0.132-0.884 0.366s-0.366 0.552-0.366 0.884z"></path>
<path d="M8.5 26c0.568 0 1.119-0.193 1.562-0.548s0.753-0.85 0.877-1.405c0.124-0.554 0.056-1.134-0.193-1.644s-0.665-0.921-1.179-1.163c-0.514-0.243-1.094-0.303-1.647-0.171s-1.044 0.447-1.393 0.895c-0.349 0.448-0.535 1.002-0.528 1.57s0.208 1.116 0.569 1.555c0.084 0.102 0.206 0.167 0.338 0.18s0.264-0.027 0.366-0.112c0.102-0.084 0.167-0.206 0.18-0.338s-0.027-0.264-0.112-0.366c-0.222-0.268-0.343-0.605-0.342-0.953 0-0.297 0.088-0.587 0.253-0.833s0.399-0.439 0.673-0.552c0.274-0.114 0.576-0.143 0.867-0.085s0.558 0.201 0.768 0.411 0.353 0.477 0.411 0.768c0.058 0.291 0.028 0.593-0.085 0.867s-0.306 0.508-0.552 0.673c-0.247 0.165-0.537 0.253-0.833 0.253-0.133 0-0.26 0.053-0.354 0.146s-0.146 0.221-0.146 0.354 0.053 0.26 0.146 0.354c0.094 0.094 0.221 0.146 0.354 0.146z"></path>
<path d="M8.5 24c0.276 0 0.5-0.224 0.5-0.5s-0.224-0.5-0.5-0.5c-0.276 0-0.5 0.224-0.5 0.5s0.224 0.5 0.5 0.5z"></path>
<path d="M13.5 22c0.133 0 0.26-0.053 0.354-0.146s0.146-0.221 0.146-0.354-0.053-0.26-0.146-0.354c-0.094-0.094-0.221-0.146-0.354-0.146h-1c-0.133 0-0.26 0.053-0.354 0.146s-0.146 0.221-0.146 0.354 0.053 0.26 0.146 0.354c0.094 0.094 0.221 0.146 0.354 0.146h1z"></path>
<path d="M4.5 22c0.133 0 0.26-0.053 0.354-0.146s0.146-0.221 0.146-0.354-0.053-0.26-0.146-0.354c-0.094-0.094-0.221-0.146-0.354-0.146h-1c-0.133 0-0.26 0.053-0.354 0.146s-0.146 0.221-0.146 0.354 0.053 0.26 0.146 0.354c0.094 0.094 0.221 0.146 0.354 0.146h1z"></path>
</svg>
